<?xml version="1.0" encoding="utf-8"?>
<!-- Svg Vector Icons : http://www.onlinewebfonts.com/icon -->
<!DOCTYPE svg PUBLIC "-//W3C//DTD SVG 1.1//EN" "http://www.w3.org/Graphics/SVG/1.1/DTD/svg11.dtd">
<svg version="1.1" xmlns="http://www.w3.org/2000/svg" xmlns:xlink="http://www.w3.org/1999/xlink" x="0px" y="0px" viewBox="0 0 1000 1000" enable-background="new 0 0 1000 1000" xml:space="preserve">
<metadata> Svg Vector Icons : http://www.onlinewebfonts.com/icon </metadata>
<g><g transform="translate(0.000000,511.000000) scale(0.100000,-0.100000)"><path d="M4516.2,4991.2C3562,4894.9,2609.9,4490,1848.3,3857.5C1073.6,3216.2,482.7,2264.2,239.7,1270.6c-348-1429.1-39.4-2921.7,851.3-4110.1c194.8-260.4,619.4-698.2,857.9-886.4c741.9-582.1,1648-949.8,2578.1-1043.9c315.2-30.6,912.6-15.3,1223.4,32.8c505.6,81,921.4,214.5,1402.9,450.8c527.4,258.2,903.9,525.3,1302.2,921.4C9394.5-2428,9900-1213.4,9900,112.9c0,774.8-153.2,1442.3-490.2,2133.8c-264.8,540.6-569,960.8-1000.1,1378.8c-752.9,726.6-1663.3,1179.6-2689.7,1335C5437.5,5004.3,4796.3,5019.6,4516.2,4991.2z M5663,4479c1564.8-240.7,2871.4-1286.9,3457.9-2768.5c188.2-477.1,273.6-908.3,291.1-1466.3c30.6-936.7-216.7-1807.7-728.8-2573.7C7564.8-4001.6,5505.4-4710.7,3603.5-4078.2C2485.2-3706.1,1555.1-2889.8,1034.2-1824C55.9,182.9,723.4,2588.1,2601.2,3818.1c551.5,361.1,1302.2,623.7,1969.7,693.8C4831.3,4538.1,5391.6,4520.6,5663,4479z"/><path d="M5879.6,2936.1c-151-28.4-350.2-109.4-470.5-192.6c-52.5-37.2-680.6-654.4-1396.3-1370L2710.6,69.1l170.7-168.5l168.5-170.7l1317.5,1315.3c1490.4,1483.8,1409.4,1418.2,1735.5,1416c271.4,0,499-100.7,702.5-308.6c280.2-284.5,369.9-704.7,216.7-1013.3c-48.2-96.3-354.6-413.6-1615.1-1678.6C4520.5-1427.8,3807.1-2126,3750.2-2158.8c-260.4-155.4-647.8,0-801,321.7c-54.7,113.8-65.7,310.8-21.9,424.6c28.5,74.4,341.4,398.3,1573.6,1630.5c1488.2,1488.2,1540.8,1536.4,1619.5,1536.4c111.6,0,229.8-107.2,249.5-225.4l13.1-85.4L5126.8,187.3L3870.5-1068.9l170.7-168.5l168.5-170.7L5479.1-138.8C6385.2,765.1,6763.8,1159,6798.8,1229c74.4,151,67.9,407.1-13.1,573.4c-76.6,155.4-199.2,282.3-348,361.1c-102.9,54.7-140.1,61.3-323.9,61.3c-159.8,0-225.4-8.7-284.5-41.6c-100.7-52.5-3199.7-3145-3280.6-3274.1c-192.6-299.8-177.3-755,37.2-1085.5c238.6-367.7,689.4-582.2,1083.3-514.3c323.9,54.7,238.6-19.7,2052.9,1794.6C7337.2,716.9,7381,762.9,7455.4,922.6c133.5,284.5,159.8,575.6,83.2,879.8c-131.3,512.1-516.5,921.4-1015.5,1078.9C6330.5,2942.7,6052.5,2966.8,5879.6,2936.1z"/></g></g>
</svg>