<?xml version="1.0" encoding="utf-8"?>
<!-- Svg Vector Icons : http://www.onlinewebfonts.com/icon -->
<!DOCTYPE svg PUBLIC "-//W3C//DTD SVG 1.1//EN" "http://www.w3.org/Graphics/SVG/1.1/DTD/svg11.dtd">
<svg version="1.1" xmlns="http://www.w3.org/2000/svg" xmlns:xlink="http://www.w3.org/1999/xlink" x="0px" y="0px" viewBox="0 0 1000 1000" enable-background="new 0 0 1000 1000" xml:space="preserve">
<metadata> Svg Vector Icons : http://www.onlinewebfonts.com/icon </metadata>
<g><g transform="translate(0.000000,511.000000) scale(0.100000,-0.100000)"><path d="M4817.1,5009.7c-1014.5-40.8-1982.3-400.3-2827.6-1051.4c-211.8-163.3-676.3-627.7-839.5-839.6c-513.1-664.6-839.5-1393.4-985.3-2196c-66.1-357.6-83.6-960-42.8-1331.2c165.2-1449.8,965.9-2749.9,2194.1-3566.1c660.8-441.2,1381.7-705.4,2161-796.8c237.1-27.2,810.4-27.2,1049.4,0c901.7,105,1745.2,452.8,2485.6,1026.1c215.7,165.2,676.3,625.8,841.5,841.5c573.3,740.4,921.2,1583.9,1026.1,2485.6c27.2,239,27.2,812.3,0,1049.4c-105,901.7-450.9,1743.2-1026.1,2485.6c-165.2,215.7-627.7,676.3-839.6,841.5c-635.5,489.7-1344.8,816.2-2093,965.9C5611.9,4984.4,5133.8,5021.3,4817.1,5009.7z M5604.1,4428.6c1780.1-229.3,3229.9-1535.3,3640-3282.4c118.6-499.5,149.6-1142.7,83.6-1632.4c-274-1980.3-1752.9-3459.2-3733.2-3733.2c-310.9-42.8-874.5-42.8-1185.4,0c-1980.3,274-3457.3,1751-3733.2,3733.2c-42.7,309-42.7,872.6,0,1185.5C1011.9,3124.6,3151.6,4745.4,5604.1,4428.6z"/><path d="M2669.6,2590.1c1.9-1.9,108.8-509.2,241-1123.3c229.3-1078.6,239-1117.4,285.7-1131.1c25.3-7.8,707.4-58.3,1513.9-112.7c806.5-54.4,1471.1-103,1475-108.8c3.9-3.9,3.9-11.7,0-15.5c-3.9-3.9-668.5-52.5-1475-106.9C3903.7-64.5,3221.6-115,3196.3-122.8c-46.6-13.6-56.4-54.4-285.7-1131c-130.2-614.1-235.2-1119.4-233.2-1121.3C2685.2-2383,7703,94.9,7703,106.5c0,7.8-4951.7,2460.3-5015.9,2483.6C2677.4,2594,2669.6,2594,2669.6,2590.1z"/></g></g>
</svg>